<svg xmlns="http://www.w3.org/2000/svg" viewBox="0 0 400 253" class="svg-logo" >
    <g fill="none" stroke="#fff"> 
        <title>logo</title><rect x="1" y="13.96" width="398" height="238.04" rx="11.79"  stroke-miterlimit="10" stroke-width="7"/>
        <ellipse cx="183.57" cy="133.9" rx="104.21" ry="103.95"  stroke-miterlimit="10" stroke-width="7"/>
        <path d="M38.33,1H77.1a3.06,3.06,0,0,1,3.06,3.06V14a0,0,0,0,1,0,0H35.27a0,0,0,0,1,0,0V4.06A3.06,3.06,0,0,1,38.33,1Z"  stroke-miterlimit="10" stroke-width="7"/>
        <ellipse cx="183.57" cy="133.9" rx="88.18" ry="87.96"  stroke-miterlimit="10" stroke-width="7"/>
        <rect x="314.63" y="36.35" width="61.32" height="40.78"  stroke-miterlimit="10" stroke-width="7"/>
    </g>
    <g fill="#fff"> 
        <path d="M198.52,86.2q0,4.08-15.88,4.92-6.36.36-19,.36a2.89,2.89,0,0,1,.24,1.44q0,2-2.89,6.24-4.32,6.36-4.93,7.43-5,9.24-10.1,18.35-7,12.72-10.7,20.63a112,112,0,0,0-7.57,19.67,8.88,8.88,0,0,1-1.75,4,3.41,3.41,0,0,1-2.58,1.26,3,3,0,0,1-2.53-1.68,7.39,7.39,0,0,1-1.08-4.08q0-5.74,7.57-20.62,3.86-7.68,15.76-27.83,10.22-17.39,13-22.91a91.06,91.06,0,0,0-13,2.28Q137,97.24,130.94,98.8c-2.4,0-3.61-1-3.61-2.88,0-1.44,1.33-2.74,4-3.9A31.38,31.38,0,0,1,140,89.68a180.62,180.62,0,0,1,30.3-5.52A213.78,213.78,0,0,1,192,83a9.88,9.88,0,0,1,4.87,1A2.73,2.73,0,0,1,198.52,86.2Z"/>
        <path d="M183.25,129.86q0,9.24-7.94,22.07-8.3,13.44-15.51,13.43a5.74,5.74,0,0,1-4.87-2.1,9.49,9.49,0,0,1-1.62-5.93q0-10.08,7.81-21.35,8.41-12.24,17.68-12.24a3.71,3.71,0,0,1,3.36,1.68A8.11,8.11,0,0,1,183.25,129.86Zm-5.78,2.86c0-1.58-.72-2.38-2.16-2.38q-3.24,0-9.62,8.82t-6.37,14.57q0,4.44,2.88,4.44,2.3,0,4.87-2.79a20.09,20.09,0,0,0,4.15-8.13c-1.28,0-1.84-.35-1.68-1.07q0-1.19,2.28-4.05,3.62-4.51,4.09-5.24A10.31,10.31,0,0,0,177.47,132.72Z"/>
        <path d="M227.73,89.8a7.28,7.28,0,0,1-.72,2.64,103.27,103.27,0,0,1-8.35,12.71q-5.47,7.32-10.77,14.16a142.11,142.11,0,0,0-9.26,13.79q-5,8.88-7.57,13.79-4.22,8-4.81,11.64,7.33-1.92,14.79-3.84a36.87,36.87,0,0,1,7.57-1.08,6,6,0,0,1,3.73,1,3,3,0,0,1,1.32,2.46,2.94,2.94,0,0,1-1.26,2.34,5.28,5.28,0,0,1-3.42,1,51.9,51.9,0,0,0-16.78,3.23q-9.31,3.24-11.6,3.24-3.25,0-3.25-3.59a24.31,24.31,0,0,1,2.17-8.68,118,118,0,0,1,5.89-12.16Q190.09,133,201.88,116q9.85-14.15,19.48-26.35a4.89,4.89,0,0,1,4.09-2.4Q227.73,87.28,227.73,89.8Z"/>
        <path d="M251.42,129.86q0,9.24-7.94,22.07-8.29,13.44-15.51,13.43a5.76,5.76,0,0,1-4.87-2.1,9.49,9.49,0,0,1-1.62-5.93q0-10.08,7.82-21.35,8.41-12.24,17.67-12.24a3.73,3.73,0,0,1,3.37,1.68A8.11,8.11,0,0,1,251.42,129.86Zm-5.77,2.86c0-1.58-.72-2.38-2.17-2.38q-3.24,0-9.62,8.82t-6.37,14.57q0,4.44,2.89,4.44,2.28,0,4.87-2.79a20.34,20.34,0,0,0,4.15-8.13c-1.29,0-1.85-.35-1.69-1.07q0-1.19,2.29-4.05,3.6-4.51,4.09-5.24A10.31,10.31,0,0,0,245.65,132.72Z"/>
    </g>
</svg>